# xmcd CD database file
#
# Track frame offsets:
#	150
#	21910
#	44802
#	59417
#	83817
#	103032
#	130685
#	154927
#	171137
#	191332
#	205427
#
# Disc length: 3054 seconds
#
# Revision: 3
# Processed by: cddbd v1.5.2PL0 Copyright (c) Steve Scherf et al.
# Submitted via: CDex 1.50Beta3
#
DISCID=980bec0b
DTITLE=Emílio Santiago - Aquarela Brasileira 3
DYEAR=1900
DGENRE=Samba
TTITLE0=Verdade Chinesa
TTITLE1=Deslizes - Oceano
TTITLE2=Pois - Vai Mesmo - Leva Meu Samba (Mensageiro)
TTITLE3=A Saudade Mata a Gente - No Rancho Fundo
TTITLE4=Nua Idéia (Leila XII) - Lua Dourada (Leila VI)
TTITLE5=De Tanto Amor - Falando Sério - Café da Manhã
TTITLE6=Vira Virou a Mocidade Chegou - E o Samba Sambou - E Deu a Louca no Barroco - Os Heróis da Resistência - Todo Mundo Nasceu Nu
TTITLE7=Dias de Lua
TTITLE8=Não Quero Mais Amar Ninguém - Peito Vazio - Acontece
TTITLE9=Nervos de Aço - Nunca
TTITLE10=Este Seu Olhar - Se Queres Saber - Alguém Como Tu
EXTD=
EXTT0=
EXTT1=
EXTT2=
EXTT3=
EXTT4=
EXTT5=
EXTT6=+ Sou Amigo do Rei
EXTT7=
EXTT8=
EXTT9=
EXTT10=
PLAYORDER=
